PathFileType	4	(X/Y/Z)	Kaydara																																																																																																																									
DataRate	CameraRate	NumFrames	NumMarkers	Units	OrigDataRate	OrigDataStartFrame	OrigNumFrames																																																																																																																					
30	30	5	41	mm	30	75	147																																																																																																																					
Frame#	Time	PAIB_LFHD			PAIB_RFHD			PAIB_LBHD			PAIB_RBHD			PAIB_LFTShould			PAIB_RFTShould			PAIB_LRRShould			PAIB_RRRShould			PAIB_T10			PAIB_STRN			PAIB_TRUN			PAIB_LSHO			PAIB_LUPA			PAIB_LELB			PAIB_LFRM			PAIB_LWRA			PAIB_LWRB			PAIB_LFIN			PAIB_RSHO			PAIB_RUPA			PAIB_RELB			PAIB_RFRM			PAIB_RWRA			PAIB_RWRB			PAIB_RFIN			PAIB_LFWT			PAIB_RFWT			PAIB_LBWT			PAIB_RBWT			PAIB_LTHI			PAIB_LKNE			PAIB_LSHN			PAIB_LANK			PAIB_LHEE			PAIB_LTOE			PAIB_RTHI			PAIB_RKNE			PAIB_RSHN			PAIB_RANK			PAIB_RHEE			PAIB_RTOE		
		X1	Y1	Z1	X2	Y2	Z2	X3	Y3	Z3	X4	Y4	Z4	X5	Y5	Z5	X6	Y6	Z6	X7	Y7	Z7	X8	Y8	Z8	X9	Y9	Z9	X10	Y10	Z10	X11	Y11	Z11	X12	Y12	Z12	X13	Y13	Z13	X14	Y14	Z14	X15	Y15	Z15	X16	Y16	Z16	X17	Y17	Z17	X18	Y18	Z18	X19	Y19	Z19	X20	Y20	Z20	X21	Y21	Z21	X22	Y22	Z22	X23	Y23	Z23	X24	Y24	Z24	X25	Y25	Z25	X26	Y26	Z26	X27	Y27	Z27	X28	Y28	Z28	X29	Y29	Z29	X30	Y30	Z30	X31	Y31	Z31	X32	Y32	Z32	X33	Y33	Z33	X34	Y34	Z34	X35	Y35	Z35	X36	Y36	Z36	X37	Y37	Z37	X38	Y38	Z38	X39	Y39	Z39	X40	Y40	Z40	X41	Y41	Z41
																																																																																																																												
37	2.47	198.65322	1663.73184	-1753.95111	12.03441	1667.04575	-1756.57196	209.38786	1633.86505	-1880.91995	6.65451	1646.8985	-1872.34894	173.94415	1394.76196	-1780.23209	51.71853	1390.60242	-1769.88098	169.34649	1475.03448	-1916.86508	16.41244	1468.66959	-1893.33191	80.95417	1323.95905	-2004.88739	122.71989	1323.74908	-1746.28815	122.72185	1220.17075	-1736.53305	295.77923	1414.35394	-1870.30533	348.77438	1198.95996	-1940.38605	355.65102	1129.6859	-2003.1662	391.61285	1012.60712	-1998.79608	367.05021	874.64088	-1932.13333	384.92668	876.97533	-2008.26477	415.59929	828.79044	-1961.46851	-81.60117	1397.69699	-1809.8732	-153.46605	1227.06558	-1836.38702	-179.68597	1109.30862	-1834.95255	-177.42512	980.80467	-1769.54636	-91.65992	914.27872	-1658.01926	-162.79232	879.63638	-1692.00119	-143.50454	866.16333	-1620.83481	210.85796	952.66487	-1810.78659	-24.28878	936.86737	-1807.09991	154.4852	998.74901	-2024.96658	7.63537	1005.9745	-2019.67804	222.70647	708.48717	-1933.99475	258.65498	545.18929	-1707.71866	224.66784	339.82548	-1674.70673	213.78471	147.95668	-1751.72073	152.08362	136.99972	-1791.56433	215.58369	113.37799	-1586.9252	-36.64971	719.75815	-2047.9834	-31.22272	468.47359	-2011.27594	38.68024	286.41689	-2035.63324	18.27112	104.72575	-2154.01321	78.61082	121.91247	-2208.96637	42.73156	77.01194	-1992.30392
38	2.503	199.16546	1658.15659	-1731.0408	12.84956	1661.84586	-1732.7681	209.57455	1628.38364	-1858.01361	6.77906	1641.83701	-1848.95599	174.40897	1389.13391	-1757.96707	52.13955	1385.13321	-1747.19391	169.24747	1470.28122	-1894.14658	16.40462	1464.01321	-1870.16953	80.34368	1319.93576	-1983.03528	123.11462	1317.91168	-1724.23431	123.01201	1214.33998	-1715.11093	295.78354	1409.44473	-1848.69293	349.26502	1195.85152	-1922.67975	356.03863	1127.817	-1986.70868	393.08151	1011.18744	-1985.4361	370.21557	871.57341	-1921.61911	387.31628	875.5838	-1997.88086	418.78536	826.60774	-1952.52457	-81.05886	1392.85217	-1786.97815	-153.38518	1222.4984	-1810.80597	-180.20294	1104.83261	-1807.39639	-177.24277	977.81975	-1739.20822	-90.17488	913.96912	-1626.88583	-161.70319	878.46954	-1659.34494	-141.75084	866.9828	-1588.00186	210.08984	946.72417	-1789.1954	-25.09515	931.49689	-1785.9494	156.15044	993.82164	-2003.06992	9.48092	1001.65016	-1999.03351	219.81371	704.09462	-1911.93985	254.17118	537.03663	-1689.57413	221.93249	338.0135	-1633.9061	211.33795	138.99612	-1687.03339	148.96404	123.33375	-1724.28024	217.00296	121.52181	-1518.53516	-35.26388	718.16765	-2032.06497	-31.12927	466.2669	-2000.4834	38.71888	284.38044	-2029.68399	18.03767	106.24902	-2152.8801	78.41661	124.78654	-2207.35764	42.40402	76.89861	-1992.28165
39	2.537	202.76985	1653.04901	-1708.0069	14.40503	1656.50314	-1707.5351	210.76883	1622.95258	-1833.42056	8.07138	1636.73386	-1823.81042	175.81306	1383.35129	-1733.69293	53.40993	1379.55795	-1722.79343	170.32183	1464.99054	-1869.73755	17.37718	1458.94623	-1845.68497	81.22756	1315.15289	-1959.06326	124.42475	1312.30377	-1700.24414	123.922	1208.53668	-1691.31699	296.85358	1404.08005	-1825.34988	351.0582	1192.2686	-1902.92328	357.49069	1125.05402	-1967.65244	395.57289	1008.88199	-1968.853	374.89609	868.03658	-1906.89346	390.76164	873.51135	-1983.47534	423.23696	824.09004	-1939.47052	-79.17851	1387.38159	-1762.23495	-152.61506	1217.5943	-1784.10797	-179.97791	1100.13672	-1778.9418	-176.69811	974.19403	-1708.78601	-88.84582	912.0195	-1596.21216	-160.70396	876.17378	-1627.41547	-140.14847	865.84023	-1555.94299	209.94478	940.30258	-1764.52332	-25.89032	926.1058	-1763.11539	158.78307	988.7236	-1978.9827	11.88026	997.17384	-1976.49734	217.69125	697.9232	-1888.98666	249.99168	528.80554	-1669.51767	219.158	337.27798	-1596.89316	210.85443	134.50805	-1631.05362	149.01004	115.21518	-1667.74323	216.64001	128.93509	-1460.92972	-33.27414	717.32735	-2014.30847	-31.29914	465.08175	-1989.00986	37.9244	283.4763	-2022.90237	17.4627	108.76101	-2151.06903	78.09854	129.07905	-2205.1593	42.1597	76.79449	-1992.20612
40	2.57	204.56316	1647.69684	-1681.11481	16.89147	1651.55457	-1680.9079	213.22353	1617.95807	-1806.72211	10.56192	1631.84799	-1797.20795	178.05126	1378.02338	-1707.2612	55.68015	1374.60312	-1696.51337	172.70739	1459.90173	-1843.26035	19.6619	1454.20929	-1819.41498	83.55198	1310.50186	-1933.08762	126.54923	1307.15546	-1673.98666	125.51188	1203.32153	-1665.08026	299.15478	1398.85742	-1799.42169	353.80737	1188.52829	-1879.96796	359.98974	1122.26112	-1945.57144	399.02458	1006.26961	-1948.49747	380.34885	864.50333	-1887.76947	395.02251	871.05423	-1964.51126	428.46363	821.41853	-1921.33392	-76.63271	1382.30316	-1735.94635	-150.48292	1212.98538	-1756.48041	-178.59829	1095.79124	-1749.81552	-175.66204	970.36514	-1678.80768	-87.78139	908.35358	-1566.25031	-159.82788	872.74017	-1596.92886	-139.12422	862.77267	-1525.46555	210.2594	935.11322	-1737.16278	-25.74582	921.27495	-1738.11478	161.57831	983.83575	-1952.30911	14.67499	992.83913	-1951.14624	217.37179	692.3008	-1863.20084	246.59468	521.76991	-1645.73273	215.68689	335.03315	-1565.40466	210.35034	131.23143	-1589.53583	149.90863	109.66393	-1627.10403	211.09715	130.71307	-1417.61871	-31.70781	717.99881	-1994.20807	-31.63256	464.89189	-1976.42685	36.78957	283.49298	-2015.17792	16.48342	112.89168	-2149.24118	77.21536	135.10127	-2202.31171	41.63606	76.74855	-1992.00302
41	2.603	207.81046	1643.35831	-1652.53357	20.22822	1647.0993	-1652.9744	217.03611	1613.45459	-1777.93243	14.37426	1627.41348	-1769.11636	181.22522	1373.53851	-1678.67859	58.86423	1370.41306	-1668.20862	176.19049	1455.48599	-1814.90234	23.18844	1450.3241	-1791.20392	86.83562	1306.38809	-1904.78836	129.38253	1302.72186	-1645.36301	128.15328	1199.08707	-1636.31638	302.33498	1394.50043	-1771.09589	357.53086	1185.3598	-1853.62564	363.72887	1119.44313	-1919.68109	403.40641	1003.81546	-1923.63419	386.2225	861.68488	-1863.65265	400.19661	868.7645	-1940.54749	434.57886	819.53224	-1898.77731	-72.94806	1378.37097	-1707.44507	-147.27847	1209.39499	-1727.86774	-175.91633	1092.46368	-1720.46524	-174.24444	966.94176	-1649.92798	-86.85576	903.46481	-1537.68219	-159.36095	868.80638	-1568.41415	-138.60849	858.31909	-1496.97845	211.3378	931.46736	-1707.0166	-24.36755	916.68274	-1709.91714	164.4035	979.82521	-1922.48093	17.69383	988.85872	-1922.49969	219.25573	688.72307	-1833.48999	243.98357	516.45527	-1617.43225	211.27115	328.66634	-1540.45044	207.09093	125.04005	-1565.09537	148.28815	103.56589	-1605.01328	201.02011	124.25828	-1392.15851	-29.21228	718.65852	-1970.82336	-31.26608	465.29606	-1961.26831	36.13142	284.53417	-2005.26062	15.27537	118.97593	-2146.38443	76.23159	143.3957	-2198.16895	41.21302	76.69885	-1991.63513
